<?xml version="1.0" standalone="no"?>
<!DOCTYPE svg PUBLIC "-//W3C//DTD SVG 20010904//EN"
 "http://www.w3.org/TR/2001/REC-SVG-20010904/DTD/svg10.dtd">
<svg version="1.0" xmlns="http://www.w3.org/2000/svg"
 width="256.000000pt" height="256.000000pt" viewBox="0 0 256.000000 256.000000"
 preserveAspectRatio="xMidYMid meet">

<g transform="translate(0.000000,256.000000) scale(0.100000,-0.100000)"
fill="#000000" stroke="none">
<path d="M1115 2545 c-188 -29 -355 -89 -497 -178 -95 -60 -115 -93 -79 -131
12 -12 21 -29 21 -37 0 -16 -220 -239 -236 -239 -6 0 -23 14 -39 30 -16 17
-32 30 -36 30 -14 0 -101 -150 -140 -240 -46 -106 -74 -209 -94 -342 -19 -121
-19 -207 -1 -323 36 -231 103 -402 237 -598 4 -6 17 -3 30 7 29 20 88 21 115
2 15 -11 21 -32 26 -93 4 -43 8 -85 9 -93 2 -22 40 -60 59 -60 9 0 25 -12 37
-28 46 -62 267 -170 451 -220 90 -24 111 -26 307 -26 197 0 216 2 309 27 154
43 285 101 403 180 l33 22 0 151 c0 103 4 154 12 162 8 8 58 12 159 12 l147 0
41 71 c119 207 171 401 171 644 0 279 -79 527 -237 747 -51 71 -59 78 -90 78
-18 0 -33 -1 -33 -3 0 -2 11 -31 25 -65 14 -34 25 -64 25 -67 0 -3 -20 -5 -44
-5 l-45 0 -11 58 c-16 80 -17 82 -40 82 -33 0 -70 44 -70 84 0 25 7 40 26 55
26 21 26 22 9 41 -10 11 -55 44 -99 72 -253 162 -584 237 -861 193z m132 -230
c32 -14 40 -13 84 2 48 17 51 17 87 -2 65 -35 68 -104 9 -192 -31 -46 -115
-113 -142 -113 -27 0 -111 67 -142 113 -56 84 -56 153 0 187 39 24 56 25 104
5z m6 -581 c3 -3 1 -14 -5 -24 -13 -21 -4 -50 15 -50 7 0 31 15 53 34 56 48
78 53 109 22 64 -65 0 -250 -102 -292 -76 -32 -167 -8 -211 57 -46 67 -10 190
71 239 32 20 59 25 70 14z m-828 -24 c18 -11 40 -32 50 -46 11 -17 22 -23 34
-19 10 3 23 -1 29 -8 9 -10 3 -22 -28 -52 -33 -32 -42 -36 -54 -25 -9 7 -14
21 -11 34 4 19 -19 65 -29 55 -2 -2 -28 -38 -57 -80 -54 -77 -168 -189 -193
-189 -18 0 -48 36 -44 53 1 8 59 65 128 127 69 62 126 116 128 120 3 9 -44 30
-68 30 -10 0 -22 5 -25 10 -12 20 105 11 140 -10z m1815 -20 c0 -18 -7 -20
-70 -20 l-71 0 3 -97 3 -98 68 0 c63 0 67 -1 67 -22 0 -22 -3 -23 -90 -23
l-90 0 0 140 0 140 90 0 c83 0 90 -1 90 -20z m126 -62 c35 -28 64 -54 63 -57
-1 -7 -126 -111 -133 -111 -3 0 -6 16 -6 36 l0 35 -67 -2 -68 -3 -3 47 -3 47
70 0 71 0 0 30 c0 17 3 30 6 30 4 0 35 -23 70 -52z m-985 -483 c107 -70 105
-241 -3 -312 -59 -40 -147 -40 -206 0 -129 85 -101 290 46 338 44 14 121 2
163 -26z m1021 -78 l1 -109 -66 -59 c-51 -46 -72 -59 -97 -59 -18 0 -43 -9
-57 -20 -14 -11 -34 -20 -44 -20 -12 0 -19 7 -19 20 0 17 -7 20 -41 20 l-41 0
4 158 c1 86 7 163 11 170 6 9 49 12 178 10 l170 -3 1 -108z m-2027 83 c18 -7
31 -6 45 2 16 10 23 10 36 -4 14 -14 15 -20 4 -32 -16 -20 -37 -20 -47 -1 -12
21 -73 32 -73 13 0 -9 -3 -28 -6 -44 -5 -28 -3 -30 53 -47 32 -10 66 -15 75
-12 17 7 48 -19 48 -39 0 -8 -7 -19 -15 -26 -8 -7 -15 -23 -15 -37 0 -14 -13
-37 -28 -53 -53 -53 -165 -63 -236 -22 -31 17 -84 108 -85 144 -1 20 31 40 52
32 16 -6 130 30 134 43 1 4 7 27 13 51 6 23 13 42 15 42 2 0 15 -4 30 -10z
m977 -550 c98 -28 167 -121 167 -225 1 -137 -97 -235 -234 -235 -92 0 -166 44
-208 124 -27 52 -30 165 -5 211 55 103 172 154 280 125z"/>
<path d="M1306 1631 c-32 -34 -29 -61 7 -61 29 0 70 42 65 67 -5 29 -41 27
-72 -6z"/>
<path d="M1162 1069 c-13 -5 -22 -15 -19 -21 3 -9 25 -12 80 -9 53 2 91 -2
127 -14 35 -12 55 -14 62 -7 12 12 -24 38 -73 52 -42 12 -146 12 -177 -1z"/>
<path d="M1195 1013 c-26 -7 -46 -23 -40 -33 3 -5 31 -6 64 -3 41 4 74 0 110
-12 56 -18 72 -15 51 10 -25 30 -130 51 -185 38z"/>
<path d="M1192 949 c-46 -14 -30 -31 21 -24 26 4 61 0 92 -9 60 -19 87 -4 34
18 -49 20 -109 26 -147 15z"/>
<path d="M2090 1035 l0 -115 35 0 c28 0 35 -4 35 -20 0 -11 4 -20 8 -20 5 0
17 9 27 20 14 15 31 20 70 20 45 0 55 4 83 33 31 32 32 36 32 115 l0 82 -145
0 -145 0 0 -115z m128 7 c2 -33 0 -42 -12 -42 -12 0 -16 11 -16 46 0 59 24 55
28 -4z m92 3 c0 -33 -4 -45 -15 -45 -11 0 -15 11 -15 38 0 21 3 42 7 45 16 16
23 4 23 -38z"/>
<path d="M230 975 c-17 -20 -5 -45 20 -45 11 0 23 7 26 15 6 15 -11 45 -26 45
-4 0 -13 -7 -20 -15z"/>
<path d="M366 977 c-23 -17 -11 -47 19 -47 29 0 39 25 19 45 -19 18 -16 18
-38 2z"/>
<path d="M244 882 c13 -22 74 -34 111 -22 19 6 35 16 35 21 0 6 -9 7 -22 3
-28 -10 -64 -9 -102 1 -20 5 -27 5 -22 -3z"/>
<path d="M1215 576 c-22 -9 -59 -35 -82 -59 -79 -83 -84 -193 -12 -280 82
-100 233 -105 320 -10 47 50 62 90 57 159 -3 50 -10 72 -34 106 -55 79 -164
115 -249 84z m154 -36 c42 -19 43 -21 25 -34 -17 -13 -18 -18 -5 -48 7 -18 15
-43 18 -56 7 -27 -17 -116 -27 -105 -17 18 -59 153 -50 158 25 15 5 25 -50 25
-57 0 -79 -13 -45 -27 9 -3 22 -20 29 -37 12 -30 7 -66 -20 -136 -3 -9 -20 22
-40 75 -28 76 -31 91 -19 98 26 14 16 27 -22 27 -35 0 -36 1 -18 19 28 31 96
61 140 61 22 0 60 -9 84 -20z m-176 -329 c-7 -9 -66 55 -79 86 -15 34 -18 100
-7 128 4 12 20 -20 48 -96 23 -63 40 -116 38 -118z m259 72 c-20 -39 -70 -92
-60 -63 3 8 21 61 39 117 l34 101 3 -58 c2 -43 -2 -69 -16 -97z m-133 -27 c12
-32 19 -61 17 -64 -7 -6 -83 -8 -90 -1 -3 3 5 35 17 71 12 36 25 63 28 60 4
-4 16 -33 28 -66z"/>
<path d="M479 2271 c-20 -16 -22 -21 -10 -35 20 -24 36 -14 36 22 0 18 -1 32
-1 32 -1 0 -12 -8 -25 -19z"/>
<path d="M410 2207 c0 -14 41 -57 53 -57 15 0 6 28 -16 48 -27 25 -37 28 -37
9z"/>
<path d="M375 2180 c-8 -13 32 -60 52 -60 20 0 16 14 -16 44 -20 19 -31 24
-36 16z"/>
<path d="M340 2142 c0 -14 56 -63 63 -55 4 3 -5 19 -20 35 -27 28 -43 35 -43
20z"/>
<path d="M315 2110 c-7 -11 31 -60 47 -60 16 0 7 27 -16 49 -16 16 -26 19 -31
11z"/>
<path d="M285 2070 c-8 -13 22 -50 42 -50 20 0 16 14 -11 39 -16 15 -26 19
-31 11z"/>
<path d="M307 482 c-22 -24 -6 -40 33 -34 31 4 38 20 18 40 -17 17 -32 15 -51
-6z"/>
<path d="M2256 481 c-10 -11 -16 -27 -14 -37 2 -14 9 -9 31 19 30 39 15 54
-17 18z"/>
<path d="M340 416 c0 -2 7 -9 15 -16 12 -10 15 -10 15 4 0 9 -7 16 -15 16 -8
0 -15 -2 -15 -4z"/>
</g>
</svg>
